grf
version=1
nRows=9
nColumns=37
inDegrees=no
endheader
time	ground_force_1_vx	ground_force_1_vy	ground_force_1_vz	ground_force_1_px	ground_force_1_py	ground_force_1_pz	ground_moment_1_mx	ground_moment_1_my	ground_moment_1_mz	ground_force_2_vx	ground_force_2_vy	ground_force_2_vz	ground_force_2_px	ground_force_2_py	ground_force_2_pz	ground_moment_2_mx	ground_moment_2_my	ground_moment_2_mz	ground_force_3_vx	ground_force_3_vy	ground_force_3_vz	ground_force_3_px	ground_force_3_py	ground_force_3_pz	ground_moment_3_mx	ground_moment_3_my	ground_moment_3_mz	ground_force_4_vx	ground_force_4_vy	ground_force_4_vz	ground_force_4_px	ground_force_4_py	ground_force_4_pz	ground_moment_4_mx	ground_moment_4_my	ground_moment_4_mz
      0.00000000	      0.00000000	     -0.00000000	      0.00000000	      0.00000000	      0.00000000	      0.00000000	      0.00000000	      0.00000000	      0.00000000	     -0.04496698	     41.40095139	   -402.80123901	   -280.99836571	  -1073.60987525	      0.00000000	      0.00000000	      0.00000000	    243.29740900	     -1.33003513	    -38.59720600	   -380.05093384	   -283.02511645	   -698.82000169	      0.00000000	      0.00000000	     -0.00000000	  -3192.37220906	      0.00000000	     -0.00000000	      0.00000000	      0.00000000	      0.00000000	      0.00000000	      0.00000000	      0.00000000	      0.00000000
      0.01000000	      0.00000000	     -0.00000000	      0.00000000	      0.00000000	      0.00000000	      0.00000000	      0.00000000	      0.00000000	      0.00000000	     -0.31246269	     41.53494644	   -403.68612671	   -281.15097634	  -1073.11304290	      0.00000000	      0.00000000	      0.00000000	    304.50785285	     -1.72994621	    -39.03868088	   -378.83145142	   -283.03148271	   -699.85829422	      0.00000000	      0.00000000	     -0.00000000	  -3039.61228555	      0.00000000	     -0.00000000	      0.00000000	      0.00000000	      0.00000000	      0.00000000	      0.00000000	      0.00000000	      0.00000000
      0.02000000	      0.00000000	     -0.00000000	      0.00000000	      0.00000000	      0.00000000	      0.00000000	      0.00000000	      0.00000000	      0.00000000	     -0.40146759	     41.80211639	   -404.92089844	   -280.70948222	  -1073.75401011	      0.00000000	      0.00000000	      0.00000000	    271.35749203	     -1.86289507	    -38.81743606	   -378.82989502	   -282.81954298	   -699.82659252	      0.00000000	      0.00000000	      0.00000000	  -3031.84788353	      0.00000000	     -0.00000000	      0.00000000	      0.00000000	      0.00000000	      0.00000000	      0.00000000	      0.00000000	      0.00000000
      0.03000000	      0.00000000	     -0.00000000	      0.00000000	      0.00000000	      0.00000000	      0.00000000	      0.00000000	      0.00000000	      0.00000000	      0.26780319	     42.02558517	   -405.27432251	   -280.99101982	  -1073.46458679	      0.00000000	      0.00000000	      0.00000000	    435.38005529	     -1.77431458	    -38.86145004	   -379.00390625	   -282.58401700	   -700.50214015	      0.00000000	     -0.00000000	     -0.00000000	  -2968.61042761	      0.00000000	     -0.00000000	      0.00000000	      0.00000000	      0.00000000	      0.00000000	      0.00000000	      0.00000000	      0.00000000
      0.04000000	      0.00000000	     -0.00000000	      0.00000000	      0.00000000	      0.00000000	      0.00000000	      0.00000000	      0.00000000	      0.00000000	     -0.22383244	     42.02450180	   -406.33160400	   -281.25623984	  -1073.85369000	      0.00000000	      0.00000000	      0.00000000	    383.38689008	     -1.77446455	    -38.86130127	   -379.87796021	   -282.93008911	   -699.40575788	      0.00000000	      0.00000000	     -0.00000000	  -2880.35745133	      0.00000000	     -0.00000000	      0.00000000	      0.00000000	      0.00000000	      0.00000000	      0.00000000	      0.00000000	      0.00000000
      0.05000000	      0.00000000	     -0.00000000	      0.00000000	      0.00000000	      0.00000000	      0.00000000	      0.00000000	      0.00000000	      0.00000000	     -0.13403930	     41.97997284	   -405.27133179	   -280.90844177	  -1073.13656110	      0.00000000	     -0.00000000	      0.00000000	    613.44352888	     -1.77458842	    -39.03855499	   -378.65710449	   -282.49224687	   -699.36357597	      0.00000000	      0.00000000	     -0.00000000	  -2845.51710924	      0.00000000	     -0.00000000	      0.00000000	      0.00000000	      0.00000000	      0.00000000	      0.00000000	      0.00000000	      0.00000000
      0.06000000	      0.00000000	     -0.00000000	      0.00000000	      0.00000000	      0.00000000	      0.00000000	      0.00000000	      0.00000000	      0.00000000	     -0.44784611	     41.93734741	   -407.74270630	   -281.34844947	  -1074.82445900	      0.00000000	      0.00000000	      0.00000000	    428.88334057	     -1.77266125	    -38.68593200	   -377.61053467	   -282.13449561	   -700.60985798	      0.00000000	      0.00000000	     -0.00000000	  -2820.66705596	      0.00000000	     -0.00000000	      0.00000000	      0.00000000	      0.00000000	      0.00000000	      0.00000000	      0.00000000	      0.00000000
      0.07000000	      0.00000000	     -0.00000000	      0.00000000	      0.00000000	      0.00000000	      0.00000000	      0.00000000	      0.00000000	      0.00000000	      0.26690257	     42.29346848	   -405.63436890	   -280.28043549	  -1073.25784040	      0.00000000	      0.00000000	      0.00000000	    693.00388342	     -1.37599497	    -38.77451694	   -377.78463745	   -282.31924629	   -700.07475068	      0.00000000	      0.00000000	     -0.00000000	  -2807.60695616	      0.00000000	     -0.00000000	      0.00000000	      0.00000000	      0.00000000	      0.00000000	      0.00000000	      0.00000000	      0.00000000
      0.08000000	      0.00000000	     -0.00000000	      0.00000000	      0.00000000	      0.00000000	      0.00000000	      0.00000000	      0.00000000	      0.00000000	     -0.26935139	     42.24523544	   -407.04159546	   -280.35228801	  -1074.55103798	      0.00000000	      0.00000000	      0.00000000	    621.52282610	     -1.81896438	    -38.33161147	   -377.61514282	   -282.37008265	   -700.55849075	      0.00000000	      0.00000000	     -0.00000000	  -2676.74748669	      0.00000000	     -0.00000000	      0.00000000	      0.00000000	      0.00000000	      0.00000000	      0.00000000	      0.00000000	      0.00000000
